<svg width="1220" height="296" viewBox="0 0 1220 296" fill="none" xmlns="http://www.w3.org/2000/svg">
<g opacity="0.02">
<path d="M693.615 216.493C674.051 216.493 659.839 199.373 659.839 175.773C659.839 152.175 674.348 133.629 693.615 133.629C712.882 133.629 727.394 151.758 727.394 175.773C727.394 199.79 713.18 216.493 693.615 216.493ZM402.763 216.463C383.196 216.463 368.984 199.343 368.984 175.745C368.984 152.145 383.494 133.6 402.763 133.6C422.03 133.6 436.539 151.73 436.539 175.745C436.539 199.76 422.327 216.463 402.763 216.463ZM100.669 216.463C81.104 216.463 66.892 199.343 66.892 175.745C66.892 152.145 81.4015 133.598 100.669 133.598C119.937 133.598 134.447 151.73 134.447 175.745C134.447 199.76 120.233 216.463 100.669 216.463ZM1015.99 205.339C1010 212.4 1001.63 216.511 991.932 216.511C972.368 216.511 958.156 199.391 958.156 175.793C958.156 152.193 972.665 133.648 991.932 133.648C1001.48 133.648 1009.85 138.106 1015.87 145.517C1021.7 123.6 1033.82 104.257 1050.34 89.8274C1041.88 83.6241 1032.48 78.701 1022.37 75.4174C1022.22 75.369 1022.07 75.3192 1021.91 75.2709C1019.26 74.4224 1016.54 73.731 1013.79 73.109C1013.09 72.952 1012.39 72.7738 1011.67 72.6319C1009.4 72.17 1007.09 71.8409 1004.76 71.5389C1003.76 71.4121 1002.78 71.2385 1001.77 71.1404C998.987 70.8686 996.169 70.7327 993.325 70.6995C992.897 70.6935 992.48 70.6436 992.051 70.6436C988.717 70.6467 985.424 70.8293 982.173 71.1599C981.954 71.1811 981.738 71.2053 981.519 71.2279C948.206 74.8422 919.804 95.2851 904.189 124.161V120.135V72.8781L895.031 71.7487C889.441 71.0346 883.91 70.7387 878.618 70.7387C830.866 70.7387 797.029 99.2706 789.952 143.437C777.226 100.817 739.405 70.6784 693.615 70.6784C651.275 70.6784 615.833 96.5955 600.728 134.343V75.8507H569.567C572.005 66.637 578.07 64.4962 586.99 64.4962C588.3 64.4962 589.727 64.4961 591.213 64.6743L602.512 65.5665V1.78302L593.236 0.714233C589.132 0.238678 585.029 9.15527e-05 581.103 9.15527e-05C533.53 9.15527e-05 501.537 35.4887 501.537 88.3932V152.279C491.607 105.082 451.644 70.5893 402.763 70.5893C364.703 70.5893 332.234 91.5138 315.107 123.138V72.8478L305.95 71.7186C300.359 71.006 294.83 70.7086 289.536 70.7086C235.659 70.6482 199.675 100.587 199.675 154.682L199.444 152.839C191.74 116.065 165.384 86.4986 131.109 75.3691C130.956 75.3193 130.804 75.2694 130.65 75.2211C127.993 74.3741 125.275 73.6827 122.53 73.0607C121.822 72.9037 121.123 72.7256 120.408 72.5836C118.137 72.1217 115.822 71.791 113.497 71.4906C112.499 71.3638 111.516 71.1902 110.507 71.0921C107.723 70.8188 104.905 70.6845 102.061 70.6512C101.634 70.6452 101.218 70.5954 100.788 70.5938C97.4531 70.5984 94.1606 70.781 90.9089 71.1117C90.6899 71.1328 90.474 71.157 90.255 71.1797C46.8577 75.8884 11.7082 109.097 2.44379 152.397C2.29925 153.087 2.10925 153.757 1.9771 154.453C1.56478 156.59 1.30335 158.779 1.01851 160.96C0.848597 162.283 0.610724 163.578 0.487483 164.919C0.282231 167.114 0.233145 169.354 0.161859 171.587C0.152948 171.853 0.14117 172.118 0.126369 172.383H0.000106812V295.826H66.7213V273.259C75.4388 276.504 84.6985 278.572 94.3389 279.215C96.4231 279.342 98.4892 279.532 100.61 279.532C102.221 279.532 103.792 279.395 105.382 279.322C106.989 279.248 108.607 279.221 110.193 279.07C111.635 278.936 113.043 278.696 114.465 278.503C116.385 278.234 118.307 277.976 120.192 277.597C121.089 277.422 121.965 277.2 122.854 277.001C125.498 276.392 128.126 275.734 130.689 274.914C130.817 274.875 130.944 274.833 131.073 274.792C165.366 263.671 191.737 234.096 199.444 197.308V275.311H266.285V161.122C266.285 144.596 276.573 134.729 293.759 134.729C296.613 134.729 299.646 135.026 302.798 135.561L308.983 136.69C304.523 148.638 302.084 161.656 302.084 175.447C302.084 233.82 346.268 279.532 402.702 279.532C452 279.532 492.022 244.877 501.537 197.382V296.385H568.377V137.433H599.598C595.376 149.144 592.997 161.923 592.997 175.358C592.997 233.731 637.181 279.443 693.615 279.443C737.858 279.443 774.61 251.564 788.585 211.499V275.282H855.426V161.152C855.426 144.625 865.714 134.759 882.9 134.759C885.754 134.759 888.787 135.055 891.939 135.591L898.347 136.755C896.422 141.805 894.863 147.047 893.708 152.447C893.562 153.137 893.372 153.807 893.241 154.502C892.829 156.638 892.567 158.827 892.282 161.008C892.113 162.331 891.874 163.626 891.75 164.967C891.546 167.162 891.496 169.402 891.425 171.635C891.385 172.858 891.267 174.055 891.264 175.292C891.35 230.628 933.001 275.755 985.602 279.264C987.687 279.39 989.753 279.581 991.873 279.581C993.483 279.581 995.055 279.443 996.646 279.371C998.253 279.297 999.87 279.27 1001.46 279.119C1002.9 278.984 1004.31 278.744 1005.73 278.551C1007.65 278.282 1009.57 278.024 1011.46 277.645C1012.35 277.47 1013.23 277.248 1014.12 277.049C1016.76 276.44 1019.39 275.782 1021.95 274.962C1022.08 274.923 1022.21 274.881 1022.34 274.84C1032.45 271.561 1041.85 266.639 1050.31 260.438C1033.77 246.05 1021.82 226.878 1015.99 205.339Z" fill="white"/>
<path d="M1090.14 158.908C1095.19 143.925 1106.89 133.644 1121.23 133.644C1135.62 133.644 1147.36 143.771 1152.37 158.908H1090.14ZM1182.9 92.2723C1173.64 84.8823 1163.09 79.1228 1151.67 75.4135C1151.51 75.3651 1151.36 75.3153 1151.21 75.267C1148.55 74.4185 1145.83 73.7271 1143.09 73.1051C1142.38 72.9481 1141.68 72.7699 1140.97 72.628C1138.69 72.166 1136.38 71.837 1134.05 71.535C1133.06 71.4082 1132.07 71.2346 1131.06 71.1365C1128.28 70.8647 1125.46 70.7289 1122.62 70.6956C1122.19 70.6896 1121.77 70.6398 1121.35 70.6398C1118.01 70.6428 1114.72 70.8254 1111.47 71.1561C1111.25 71.1772 1111.03 71.2014 1110.81 71.224C1067.41 75.9328 1032.26 109.142 1023 152.443C1022.86 153.133 1022.67 153.803 1022.53 154.498C1022.12 156.634 1021.86 158.823 1021.57 161.005C1021.41 162.327 1021.17 163.622 1021.04 164.963C1020.84 167.158 1020.79 169.399 1020.72 171.631C1020.68 172.854 1020.56 174.051 1020.56 175.288C1020.64 230.625 1062.29 275.751 1114.9 279.26C1116.98 279.386 1119.05 279.577 1121.17 279.577C1122.78 279.577 1124.35 279.439 1125.94 279.367C1127.55 279.293 1129.16 279.266 1130.75 279.115C1132.19 278.98 1133.6 278.74 1135.02 278.547C1136.94 278.278 1138.86 278.02 1140.75 277.641C1141.65 277.466 1142.52 277.244 1143.41 277.045C1146.05 276.436 1148.68 275.778 1151.25 274.959C1151.37 274.919 1151.5 274.877 1151.63 274.836C1163.06 271.13 1173.61 265.37 1182.89 257.979C1189.9 252.39 1195.85 245.814 1200.93 238.652L1147.12 202.994V202.943C1141.07 211.453 1131.96 216.507 1121.23 216.507C1107.39 216.507 1096.27 207.926 1090.92 194.574H1151.6H1214.05H1218.58C1219.43 189.102 1220 183.575 1220 177.986V172.25C1220 141.436 1207 111.491 1182.9 92.2723Z" fill="white"/>
</g>
</svg>
